<mxfile host="app.diagrams.net" modified="2020-09-02T02:46:13.708Z" agent="5.0 (Windows NT 10.0; Win64; x64) AppleWebKit/537.36 (KHTML, like Gecko) Chrome/85.0.4183.83 Safari/537.36 Edg/85.0.564.44" etag="Pt-NvnTjTxjGfSlZZBvQ" version="13.6.6" type="github">
  <diagram id="OBKR02FrYidgBjTfZYDG" name="Page-1">
    <mxGraphModel dx="1747" dy="428" grid="1" gridSize="10" guides="1" tooltips="1" connect="1" arrows="1" fold="1" page="1" pageScale="1" pageWidth="827" pageHeight="1169" math="0" shadow="0">
      <root>
        <mxCell id="0" />
        <mxCell id="1" parent="0" />
        <mxCell id="9v_twUDeS9fNEYnVA7CQ-1" value="MAC" style="rounded=0;whiteSpace=wrap;html=1;" parent="1" vertex="1">
          <mxGeometry x="100" y="90" width="230" height="50" as="geometry" />
        </mxCell>
        <mxCell id="9fPGOeFuEC6bNh4Ro0Tt-1" value="RS" style="rounded=0;whiteSpace=wrap;html=1;" vertex="1" parent="1">
          <mxGeometry x="100" y="180" width="230" height="50" as="geometry" />
        </mxCell>
        <mxCell id="9fPGOeFuEC6bNh4Ro0Tt-2" value="" style="endArrow=classic;html=1;exitX=0;exitY=0.5;exitDx=0;exitDy=0;" edge="1" parent="1" source="9v_twUDeS9fNEYnVA7CQ-1">
          <mxGeometry width="50" height="50" relative="1" as="geometry">
            <mxPoint x="-10" y="140" as="sourcePoint" />
            <mxPoint x="40" y="115" as="targetPoint" />
          </mxGeometry>
        </mxCell>
        <mxCell id="9fPGOeFuEC6bNh4Ro0Tt-3" value="PREAMBLE" style="rounded=0;whiteSpace=wrap;html=1;" vertex="1" parent="1">
          <mxGeometry x="-130" y="40" width="170" height="20" as="geometry" />
        </mxCell>
        <mxCell id="9fPGOeFuEC6bNh4Ro0Tt-4" value="SFD" style="rounded=0;whiteSpace=wrap;html=1;" vertex="1" parent="1">
          <mxGeometry x="-130" y="60" width="170" height="20" as="geometry" />
        </mxCell>
        <mxCell id="9fPGOeFuEC6bNh4Ro0Tt-5" value="DESTINATION ADDRESS" style="rounded=0;whiteSpace=wrap;html=1;" vertex="1" parent="1">
          <mxGeometry x="-130" y="80" width="170" height="20" as="geometry" />
        </mxCell>
        <mxCell id="9fPGOeFuEC6bNh4Ro0Tt-6" value="SOURCE ADDRESS" style="rounded=0;whiteSpace=wrap;html=1;" vertex="1" parent="1">
          <mxGeometry x="-130" y="100" width="170" height="20" as="geometry" />
        </mxCell>
        <mxCell id="9fPGOeFuEC6bNh4Ro0Tt-7" value="LENGTH/TYPE" style="rounded=0;whiteSpace=wrap;html=1;" vertex="1" parent="1">
          <mxGeometry x="-130" y="120" width="170" height="20" as="geometry" />
        </mxCell>
        <mxCell id="9fPGOeFuEC6bNh4Ro0Tt-8" value="MAC CLIENT DATA" style="rounded=0;whiteSpace=wrap;html=1;dashed=1;" vertex="1" parent="1">
          <mxGeometry x="-130" y="140" width="170" height="20" as="geometry" />
        </mxCell>
        <mxCell id="9fPGOeFuEC6bNh4Ro0Tt-9" value="PAD" style="rounded=0;whiteSpace=wrap;html=1;dashed=1;" vertex="1" parent="1">
          <mxGeometry x="-130" y="160" width="170" height="20" as="geometry" />
        </mxCell>
        <mxCell id="9fPGOeFuEC6bNh4Ro0Tt-10" value="FRAME CHECK SEQUENCE" style="rounded=0;whiteSpace=wrap;html=1;" vertex="1" parent="1">
          <mxGeometry x="-130" y="180" width="170" height="20" as="geometry" />
        </mxCell>
        <mxCell id="9fPGOeFuEC6bNh4Ro0Tt-11" value="EXETENSION" style="rounded=0;whiteSpace=wrap;html=1;dashed=1;" vertex="1" parent="1">
          <mxGeometry x="-130" y="200" width="170" height="20" as="geometry" />
        </mxCell>
        <mxCell id="9fPGOeFuEC6bNh4Ro0Tt-12" value="7 OCTETS" style="text;html=1;strokeColor=none;fillColor=none;align=center;verticalAlign=middle;whiteSpace=wrap;rounded=0;dashed=1;" vertex="1" parent="1">
          <mxGeometry x="-240" y="40" width="110" height="20" as="geometry" />
        </mxCell>
        <mxCell id="9fPGOeFuEC6bNh4Ro0Tt-13" value="1 OCTETS" style="text;html=1;strokeColor=none;fillColor=none;align=center;verticalAlign=middle;whiteSpace=wrap;rounded=0;dashed=1;" vertex="1" parent="1">
          <mxGeometry x="-240" y="60" width="110" height="20" as="geometry" />
        </mxCell>
        <mxCell id="9fPGOeFuEC6bNh4Ro0Tt-14" value="6 OCTETS" style="text;html=1;strokeColor=none;fillColor=none;align=center;verticalAlign=middle;whiteSpace=wrap;rounded=0;dashed=1;" vertex="1" parent="1">
          <mxGeometry x="-240" y="80" width="110" height="20" as="geometry" />
        </mxCell>
        <mxCell id="9fPGOeFuEC6bNh4Ro0Tt-15" value="6 OCTETS" style="text;html=1;strokeColor=none;fillColor=none;align=center;verticalAlign=middle;whiteSpace=wrap;rounded=0;dashed=1;" vertex="1" parent="1">
          <mxGeometry x="-240" y="100" width="110" height="20" as="geometry" />
        </mxCell>
        <mxCell id="9fPGOeFuEC6bNh4Ro0Tt-16" value="2 OCTETS" style="text;html=1;strokeColor=none;fillColor=none;align=center;verticalAlign=middle;whiteSpace=wrap;rounded=0;dashed=1;" vertex="1" parent="1">
          <mxGeometry x="-240" y="120" width="110" height="20" as="geometry" />
        </mxCell>
        <mxCell id="9fPGOeFuEC6bNh4Ro0Tt-17" value="4 OCTETS" style="text;html=1;strokeColor=none;fillColor=none;align=center;verticalAlign=middle;whiteSpace=wrap;rounded=0;dashed=1;" vertex="1" parent="1">
          <mxGeometry x="-240" y="180" width="110" height="20" as="geometry" />
        </mxCell>
        <mxCell id="9fPGOeFuEC6bNh4Ro0Tt-19" value="" style="strokeWidth=2;html=1;shape=mxgraph.flowchart.annotation_1;align=left;pointerEvents=1;dashed=1;" vertex="1" parent="1">
          <mxGeometry x="-140" y="150" width="10" height="20" as="geometry" />
        </mxCell>
        <mxCell id="9fPGOeFuEC6bNh4Ro0Tt-21" value="46 TO 1500 OR 1504 OR 1982 OCTETS" style="text;html=1;strokeColor=none;fillColor=none;align=center;verticalAlign=middle;whiteSpace=wrap;rounded=0;dashed=1;" vertex="1" parent="1">
          <mxGeometry x="-310" y="140" width="130" height="40" as="geometry" />
        </mxCell>
        <mxCell id="9fPGOeFuEC6bNh4Ro0Tt-22" value="" style="endArrow=classic;html=1;exitX=0;exitY=0.5;exitDx=0;exitDy=0;exitPerimeter=0;entryX=1;entryY=0.5;entryDx=0;entryDy=0;" edge="1" parent="1" source="9fPGOeFuEC6bNh4Ro0Tt-19" target="9fPGOeFuEC6bNh4Ro0Tt-21">
          <mxGeometry width="50" height="50" relative="1" as="geometry">
            <mxPoint x="-180" y="260" as="sourcePoint" />
            <mxPoint x="-210" y="260" as="targetPoint" />
          </mxGeometry>
        </mxCell>
        <mxCell id="9fPGOeFuEC6bNh4Ro0Tt-23" value="" style="strokeWidth=2;html=1;shape=mxgraph.flowchart.annotation_1;align=left;pointerEvents=1;dashed=1;" vertex="1" parent="1">
          <mxGeometry x="-340" y="80" width="210" height="120" as="geometry" />
        </mxCell>
        <mxCell id="9fPGOeFuEC6bNh4Ro0Tt-25" value="FRAME" style="text;html=1;strokeColor=none;fillColor=none;align=center;verticalAlign=middle;whiteSpace=wrap;rounded=0;dashed=1;" vertex="1" parent="1">
          <mxGeometry x="-340" y="80" width="50" height="20" as="geometry" />
        </mxCell>
        <mxCell id="9fPGOeFuEC6bNh4Ro0Tt-26" value="" style="strokeWidth=2;html=1;shape=mxgraph.flowchart.annotation_1;align=left;pointerEvents=1;dashed=1;" vertex="1" parent="1">
          <mxGeometry x="-413" y="40" width="280" height="180" as="geometry" />
        </mxCell>
        <mxCell id="9fPGOeFuEC6bNh4Ro0Tt-28" value="PACKET" style="text;html=1;strokeColor=none;fillColor=none;align=center;verticalAlign=middle;whiteSpace=wrap;rounded=0;dashed=1;" vertex="1" parent="1">
          <mxGeometry x="-410" y="40" width="50" height="20" as="geometry" />
        </mxCell>
      </root>
    </mxGraphModel>
  </diagram>
</mxfile>
